<?xml version="1.0" encoding="utf-8"?>
<!-- Generator: Adobe Illustrator 28.3.0, SVG Export Plug-In . SVG Version: 6.00 Build 0)  -->
<svg version="1.1" xmlns="http://www.w3.org/2000/svg" xmlns:xlink="http://www.w3.org/1999/xlink" x="0px" y="0px"
	 viewBox="0 0 612 352" style="enable-background:new 0 0 612 352;" xml:space="preserve">
<style type="text/css">
	.st0{fill:none;stroke:#000000;stroke-width:6.2791;stroke-miterlimit:10;}
	.st1{fill:#E6E7E8;}
	.st2{fill:url(#SVGID_1_);}
</style>
<g id="Layer_1">
	<line class="st0" x1="169.4" y1="203.5" x2="40.7" y2="203.5"/>
	<g>
		<path class="st1" d="M228.4,322.6l-6-2.6c7.9-25.4,15.9-52.9,24-82.4c-63.4-7.9-87.7-41.5-73-100.8c6.8-27.5,20.7-50.8,41.6-70.1
			s49.4-30.2,80.4-37.8l0.7,4.1c-21.3,6.4-37.3,20.5-48.2,33.5c-10.8,13-19.3,31.6-25.3,55.9c-6.7,27.2-7.6,49.1-2.6,65.9
			c5,16.8,15.2,28.1,30.5,34l25.4-108.7c2.3-10.5,7.3-20.8,14.9-30.9c7.6-10.1,16.8-19.1,27.6-27.2c10.8-8,22.3-14.5,34.5-19.3
			s24.1-7.2,35.6-7.2c21.5,0,36.9,7.1,46.1,21.3c9.2,14.2,10.2,35.9,2.9,65.1c-5.8,23.4-16.2,44.3-31.3,62.7
			c-15.1,18.4-33.3,33-54.6,43.8c-21.3,10.8-44.4,16.7-69.3,17.5l-15.4,70.1L228.4,322.6z M285.8,226.2c15.2-0.9,29.6-5.8,43.4-14.7
			c13.8-8.9,25.8-20.9,36.1-35.9c10.3-15,17.8-32.2,22.6-51.5c5.8-23.4,6.5-41.7,2.2-55c-4.3-13.3-13.4-19.9-27.3-19.9
			c-12.9,0-23.6,7-32.4,21c-4.4,7-8.6,16.2-12.8,27.6c-4.1,11.4-8,25-11.7,40.7L285.8,226.2z"/>
	</g>
	<path d="M142.8,175.7L130,157.9l-13.2,17.9H98.4l22.4-29.3l-21.6-28.9h18.9l12.3,17l12.7-17h18L139.4,146l22.5,29.8H142.8z
		 M188.8,115.9c-16.2,2-27.2,14.4-27.2,30.8c0,18.7,0,49,0,79.6h15.3c0.1,0,0.1-81.4,0.1-81.5c0-8,5.6-13.5,13.5-14
		c8.6-0.5,15.1,4.1,16.3,11.8c1.3,8.6-2.8,15.6-10.4,17.6c-1.3,0.4-2.7,0.5-4.2,0.7c0,5,0,9.9,0,15c1.9-0.2,3.5-0.3,5.1-0.6
		c16-2.6,26.9-17.9,24.5-34.6C219.5,125.6,204.3,114,188.8,115.9z M96.2,162.5l-10.9,13.2H41.1v-71.1h53.8v13.2H57.5v15.5h33V146
		h-33v16.5H96.2z"/>
	<radialGradient id="SVGID_1_" cx="408.6828" cy="129.0949" r="125.246" gradientUnits="userSpaceOnUse">
		<stop  offset="0" style="stop-color:#F89521"/>
		<stop  offset="0.2895" style="stop-color:#F39228"/>
		<stop  offset="0.9967" style="stop-color:#922A8E"/>
	</radialGradient>
	<path class="st2" d="M330.5,151.5c-1.7,7.4-3.3,15.2-4.8,23.5c-2.6,0-7.4,0.6-14.3,1.9c-8.9,1.6-15.4,2.4-19.6,2.4
		c-10.5,0-19.7-2.1-27.7-6.2c-7.9-4.2-14.1-10.1-18.5-17.8c-4.4-7.7-6.6-16.3-6.6-25.8c0-9.3,2.3-17.9,7-25.8s11.1-14,19.3-18.4
		s17.5-6.6,27.7-6.6c4.3,0,10.1,0.5,17.4,1.4c5.7,0.7,9.8,1.1,12.4,1.1c0.6,6.5,1.7,14.3,3.2,23.5c0,0.7-0.7,1.1-2.2,1.1
		c-0.9,0-1.5-0.4-1.7-1.1c-1.7-6.3-5.2-11.4-10.7-15.5c-5.5-4.1-11.8-6.1-18.9-6.1c-10.8,0-19.9,4.5-27.3,13.4
		c-7.4,8.9-11,19.9-11,32.9c0,12.6,3.6,23.3,10.9,32.1c7.3,8.8,16.2,13.2,26.7,13.2c16.5,0,28.1-7.8,35-23.4
		c0.3-0.7,0.9-1.1,1.9-1.1C329.8,150.4,330.5,150.8,330.5,151.5z M443.7,134.7c0,1.2-0.4,1.8-1.1,1.9c-5.6,0.6-9.3,1.7-11.3,3.1
		c-2,1.4-3,4.3-3,8.6v8.2c0,7.1,0.5,12,1.5,14.7c-6.1,2.4-12.8,4.4-19.9,6c-7.1,1.5-13.4,2.3-18.8,2.3c-10.5,0-19.8-2.1-27.7-6.2
		c-7.9-4.2-14.1-10.1-18.5-17.8c-4.4-7.7-6.6-16.3-6.6-25.8c0-9.4,2.4-18,7.2-25.9c4.8-7.9,11.4-14,19.9-18.3
		c8.4-4.3,18-6.5,28.7-6.5c4.2,0,9.7,0.7,16.7,2.2C417,82.4,421.7,83,425,83c0.6,6.5,1.7,14.3,3.2,23.5c0,0.7-0.7,1.1-2.2,1.1
		c-1,0-1.5-0.4-1.7-1.1c-4.1-15.5-14.9-23.2-32.4-23.2c-10.8,0-20,4.5-27.3,13.4c-7.4,8.9-11,19.9-11,32.9
		c0,12.6,3.6,23.3,10.9,32.1c7.3,8.8,16.2,13.2,26.7,13.2c15.4,0,23.2-3.8,23.2-11.5v-18.3c0-2.5-1.2-4.4-3.7-5.4
		c-2.4-1.1-8.3-2.1-17.6-3c-0.7,0-1.1-0.7-1.1-2c0-1.3,0.4-1.9,1.1-1.9c3.1,0,7.7,0.1,13.7,0.3c5.8,0.2,10.1,0.3,12.9,0.3
		c2.8,0,6.4-0.1,11-0.3c4.9-0.2,8.9-0.3,12-0.3C443.4,132.7,443.7,133.4,443.7,134.7z M578.5,175.2c0,1.3-0.4,1.9-1.1,1.9
		c-3.1,0-6.8-0.1-11.3-0.4c-4.2-0.3-7.7-0.4-10.5-0.4s-6.2,0.1-10.3,0.4c-4.2,0.3-7.9,0.4-11,0.4c-0.8,0-1.2-0.6-1.2-1.9
		c0-1.2,0.4-1.8,1.1-1.9c5.4-0.6,9.1-1.6,11-3c2-1.3,2.9-3.9,2.9-7.6v-1.1l-2.9-67l-33.3,83.6c-0.3,0.7-0.9,1.1-1.9,1.1
		c-1.1,0-1.7-0.4-1.9-1.1l-31.4-80.3l-5,63.8c-0.1,0.8-0.1,1.5-0.1,2.1c0,3.1,1.1,5.3,3.2,6.6c2.1,1.3,5.9,2.3,11.3,2.9
		c0.6,0.1,1,0.7,1,1.9c0,1.3-0.4,1.9-1.2,1.9c-2.4,0-5.7-0.1-9.8-0.4c-3.9-0.3-6.8-0.4-8.9-0.4c-2.3,0-5.4,0.1-9.4,0.4
		c-3.8,0.3-6.8,0.4-8.9,0.4c-0.6,0-1-0.6-1-1.9c0-1.2,0.4-1.8,1.2-1.9c5.8-0.7,9.8-1.8,12.1-3.3c2.2-1.5,3.5-4.3,3.8-8.4l7.2-65.1
		c0-0.8,0.1-1.6,0.1-2.2c0-3-1.1-5.2-3.2-6.5c-2.1-1.3-6-2.4-11.6-3c-0.6,0-1-0.6-1-1.9c0-0.5,0.1-0.9,0.4-1.3
		c0.3-0.4,0.6-0.6,0.8-0.6c1.7,0,4.1,0.1,7.3,0.4c2.7,0.3,4.6,0.4,5.9,0.4c1.6,0,3.9-0.1,6.9-0.4c3.1-0.3,5.5-0.4,7.2-0.4l29.7,76.8
		l30.6-76.8c1.8,0,4.2,0.1,7.2,0.4c2.7,0.3,4.8,0.4,6.4,0.4c1.9,0,4.3-0.1,7-0.4c2.8-0.3,5.2-0.4,7.3-0.4c0.8,0,1.2,0.6,1.2,1.9
		c0,1.3-0.4,1.9-1.1,1.9c-5.4,0.6-9.1,1.6-11,3c-2,1.3-2.9,3.9-2.9,7.6v1.2l3.2,65.1c0.1,3.2,0.6,5.5,1.5,6.8
		c0.9,1.3,2.3,2.3,4.4,3.1c2.1,0.8,5,1.4,8.9,1.8C578.2,173.4,578.5,174,578.5,175.2z"/>
</g>
<g id="_x3C_Layer_x3E_">
</g>
<g id="Isolation_Mode">
</g>
</svg>
