<?xml version="1.0" encoding="utf-8"?>
<!-- Generator: Adobe Illustrator 28.3.0, SVG Export Plug-In . SVG Version: 6.00 Build 0)  -->
<svg version="1.1" id="Layer_1" xmlns="http://www.w3.org/2000/svg" xmlns:xlink="http://www.w3.org/1999/xlink" x="0px" y="0px"
	 viewBox="0 0 300 80" style="enable-background:new 0 0 300 80;" xml:space="preserve">
<style type="text/css">
	.st0{fill:none;stroke:#231F20;stroke-width:3.2972;stroke-miterlimit:10;}
	.st1{fill:url(#SVGID_1_);}
</style>
<line class="st0" x1="78.5" y1="67.4" x2="10.9" y2="67.4"/>
<path d="M64.5,52.8l-6.7-9.4l-6.9,9.4h-9.7L53,37.4L41.6,22.2h9.9l6.5,8.9l6.6-8.9h9.4L62.8,37.2l11.8,15.6H64.5z M88.7,21.4
	c-8.5,1.1-14.3,7.5-14.3,16.2c0,9.8,0,25.7,0,41.8h8c0,0,0.1-42.7,0.1-42.8c0-4.2,3-7.1,7.1-7.3c4.5-0.3,7.9,2.2,8.6,6.2
	c0.7,4.5-1.4,8.2-5.5,9.3c-0.7,0.2-1.4,0.3-2.2,0.4c0,2.6,0,5.2,0,7.9c1-0.1,1.9-0.2,2.7-0.3c8.4-1.4,14.1-9.4,12.8-18.1
	C104.8,26.5,96.8,20.4,88.7,21.4z M40.1,45.9l-5.7,6.9H11.1V15.5h28.2v6.9H19.7v8.1h17.3v6.7H19.7v8.6H40.1z"/>
<radialGradient id="SVGID_1_" cx="204.1433" cy="28.335" r="65.767" gradientUnits="userSpaceOnUse">
	<stop  offset="0" style="stop-color:#F79420"/>
	<stop  offset="0.2895" style="stop-color:#F39127"/>
	<stop  offset="0.9967" style="stop-color:#91298C"/>
</radialGradient>
<path class="st1" d="M163.1,40.1c-0.9,3.9-1.7,8-2.5,12.3c-1.4,0-3.9,0.3-7.5,1c-4.6,0.8-8.1,1.3-10.3,1.3c-5.5,0-10.4-1.1-14.5-3.3
	c-4.2-2.2-7.4-5.3-9.7-9.4c-2.3-4.1-3.5-8.6-3.5-13.5c0-4.9,1.2-9.4,3.7-13.5c2.5-4.1,5.8-7.3,10.2-9.6C133.1,3.1,138,2,143.4,2
	c2.3,0,5.3,0.2,9.2,0.7c3,0.4,5.1,0.6,6.5,0.6c0.3,3.4,0.9,7.5,1.7,12.3c0,0.4-0.4,0.6-1.2,0.6c-0.5,0-0.8-0.2-0.9-0.6
	c-0.9-3.3-2.7-6-5.6-8.1c-2.9-2.1-6.2-3.2-10-3.2c-5.7,0-10.5,2.3-14.3,7c-3.9,4.7-5.8,10.4-5.8,17.2c0,6.6,1.9,12.2,5.7,16.9
	c3.8,4.6,8.5,7,14,7c8.6,0,14.8-4.1,18.4-12.3c0.2-0.4,0.5-0.6,1-0.6C162.7,39.5,163.1,39.7,163.1,40.1z M222.5,31.3
	c0,0.6-0.2,0.9-0.6,1c-2.9,0.3-4.9,0.9-5.9,1.6c-1,0.8-1.6,2.3-1.6,4.5v4.3c0,3.7,0.3,6.3,0.8,7.7c-3.2,1.3-6.7,2.3-10.4,3.1
	c-3.7,0.8-7,1.2-9.9,1.2c-5.5,0-10.4-1.1-14.5-3.3c-4.2-2.2-7.4-5.3-9.7-9.4c-2.3-4.1-3.5-8.6-3.5-13.5c0-4.9,1.3-9.5,3.8-13.6
	s6-7.3,10.4-9.6c4.4-2.3,9.5-3.4,15.1-3.4c2.2,0,5.1,0.4,8.8,1.2c3.2,0.7,5.7,1,7.5,1c0.3,3.4,0.9,7.5,1.7,12.3
	c0,0.4-0.4,0.6-1.2,0.6c-0.5,0-0.8-0.2-0.9-0.6c-2.1-8.1-7.8-12.2-17-12.2c-5.7,0-10.5,2.3-14.3,7c-3.9,4.7-5.8,10.4-5.8,17.2
	c0,6.6,1.9,12.2,5.7,16.9c3.8,4.6,8.5,7,14,7c8.1,0,12.2-2,12.2-6v-9.6c0-1.3-0.6-2.3-1.9-2.9c-1.3-0.6-4.4-1.1-9.2-1.6
	c-0.4,0-0.6-0.4-0.6-1.1c0-0.7,0.2-1,0.6-1c1.6,0,4,0.1,7.2,0.2c3.1,0.1,5.3,0.2,6.8,0.2c1.5,0,3.4-0.1,5.8-0.2
	c2.6-0.1,4.7-0.2,6.3-0.2C222.4,30.2,222.5,30.6,222.5,31.3z M293.3,52.5c0,0.7-0.2,1-0.6,1c-1.6,0-3.6-0.1-5.9-0.2
	c-2.2-0.1-4.1-0.2-5.5-0.2c-1.5,0-3.3,0.1-5.4,0.2c-2.2,0.1-4.2,0.2-5.8,0.2c-0.4,0-0.7-0.3-0.7-1c0-0.6,0.2-0.9,0.6-1
	c2.8-0.3,4.8-0.9,5.8-1.6c1-0.7,1.5-2,1.5-4v-0.6l-1.5-35.2l-17.5,43.9c-0.1,0.4-0.5,0.6-1,0.6c-0.6,0-0.9-0.2-1-0.6L239.9,12
	l-2.6,33.5c0,0.4-0.1,0.8-0.1,1.1c0,1.6,0.6,2.8,1.7,3.5c1.1,0.7,3.1,1.2,6,1.5c0.3,0,0.5,0.4,0.5,1c0,0.7-0.2,1-0.7,1
	c-1.3,0-3-0.1-5.2-0.2c-2-0.1-3.6-0.2-4.7-0.2c-1.2,0-2.8,0.1-4.9,0.2c-2,0.1-3.6,0.2-4.6,0.2c-0.3,0-0.5-0.3-0.5-1
	c0-0.6,0.2-0.9,0.7-1c3-0.4,5.2-0.9,6.3-1.7c1.2-0.8,1.8-2.3,2-4.4l3.8-34.2c0-0.4,0-0.8,0-1.2c0-1.6-0.6-2.7-1.7-3.4
	c-1.1-0.7-3.1-1.2-6.1-1.6c-0.3,0-0.5-0.3-0.5-1c0-0.2,0.1-0.5,0.2-0.7c0.1-0.2,0.3-0.3,0.4-0.3c0.9,0,2.2,0.1,3.8,0.2
	c1.4,0.1,2.4,0.2,3.1,0.2c0.8,0,2.1-0.1,3.6-0.2c1.6-0.1,2.9-0.2,3.8-0.2l15.6,40.3L275.9,3c1,0,2.2,0.1,3.8,0.2
	c1.4,0.1,2.5,0.2,3.4,0.2c1,0,2.2-0.1,3.7-0.2c1.5-0.1,2.7-0.2,3.8-0.2c0.4,0,0.7,0.3,0.7,1c0,0.7-0.2,1-0.6,1
	c-2.8,0.3-4.8,0.9-5.8,1.6c-1,0.7-1.5,2-1.5,4v0.6l1.7,34.2c0.1,1.7,0.3,2.9,0.8,3.6c0.4,0.7,1.2,1.2,2.3,1.6c1.1,0.4,2.7,0.7,4.7,1
	C293.1,51.6,293.3,51.9,293.3,52.5z"/>
</svg>
